<svg xmlns="http://www.w3.org/2000/svg" width="1356" height="418" viewBox="0 0 1356 418" fill="none">
      <path d="M40.5 417.5V262.5L1 219.5V97M108.5 417.5V303.5L167.5 262.5V159L108.5 109V28M190 417.5V303.5L145.5 249V97M167.5 417.5V345L237 278.5V144.5L290 109V0M331.5 417.5V392.5L290 357V200.5L339 159V73.5M271 417.5V303.5L380 219.5V44M398 417.5L442 392.5V278.5L398 227V87M367 417.5V345L477.5 303.5V219.5L442 177V73.5M522 417.5V345L457 293.5V227L501 187V73.5M592.5 417.5V315.5L547 278.5V159L609 97V65.5M644.5 417.5V278.5L719.5 187V79M771 417.5V370L684 315.5V144.5L761 97V73.5M719.5 417.5V303.5L828.5 239V159L790.5 129.5V65.5M889 417.5V370L802 323V209.5L889 159V28M837.5 417.5V357L889 315.5V239L958.5 200.5V144.5L1011.5 109V36.5M979 417.5V315.5L930.5 262.5V109M945.5 417.5V370L1020.5 345V278.5L992.5 249V177M1079.5 417.5V315.5L1050 303.5V109L1079.5 87V8.5M1147.5 417.5V357L1189 323V169.5L1147.5 144.5V87L1189 44V8.5M1239 417.5V370L1122.5 262.5V16M1283 417.5V345L1333.5 293.5V133.5L1283 61.5V0M1355.5 417.5V345L1283 262.5V133.5L1239 87V0M1189 417.5V385L1224 315.5V187" stroke="url(#paint0_linear_7_142)" stroke-opacity="0.7"/>
      <defs>
        <linearGradient id="paint0_linear_7_142" x1="677.75" y1="-19.5" x2="678.25" y2="417.5" gradientUnits="userSpaceOnUse">
          <stop stop-color="#00FFB6"/>
          <stop offset="0.961174" stop-color="#00855F" stop-opacity="0.520833"/>
          <stop offset="1" stop-opacity="0"/>
        </linearGradient>
      </defs>
    </svg>